<?xml version="1.0" standalone="no"?>
<!DOCTYPE svg PUBLIC "-//W3C//DTD SVG 20010904//EN"
 "http://www.w3.org/TR/2001/REC-SVG-20010904/DTD/svg10.dtd">
<svg version="1.0" xmlns="http://www.w3.org/2000/svg"
 width="800.000000pt" height="800.000000pt" viewBox="0 0 800.000000 800.000000"
 preserveAspectRatio="xMidYMid meet">
<metadata>
Created by potrace 1.14, written by Peter Selinger 2001-2017
</metadata>
<g transform="translate(0.000000,800.000000) scale(0.100000,-0.100000)"
fill="#000000" stroke="none">
<path d="M5150 7283 c-8 -3 -51 -31 -95 -62 -139 -98 -304 -189 -367 -205
l-28 -6 0 94 c0 102 -10 123 -52 111 -27 -8 -240 -91 -283 -110 -37 -17 -335
-114 -475 -155 -152 -45 -354 -114 -440 -151 -258 -109 -578 -338 -667 -476
-10 -15 -26 -37 -37 -48 -10 -11 -27 -39 -37 -63 -20 -47 -34 -48 -42 -5 -34
181 -65 283 -85 283 -4 0 -25 -14 -46 -32 -38 -31 -43 -31 -60 7 -15 33 -302
-352 -401 -539 -41 -77 -80 -190 -94 -271 -6 -33 -18 -96 -26 -140 -77 -429
-71 -782 25 -1540 35 -272 31 -256 54 -253 16 2 27 -11 55 -62 34 -64 42 -102
57 -247 6 -60 10 -74 26 -79 44 -14 67 54 69 206 0 63 -2 124 -6 135 -6 17 -5
17 5 5 9 -12 10 -7 5 25 -4 31 -3 37 6 25 9 -13 10 -12 5 4 -6 18 4 63 24 111
4 11 27 79 50 150 23 72 46 137 51 146 8 16 34 108 79 274 85 320 105 384 153
475 71 139 166 238 281 297 l51 26 463 4 c451 5 465 4 520 -16 32 -11 102 -30
157 -40 55 -11 132 -27 170 -35 226 -50 572 -63 926 -36 183 14 215 10 364
-46 39 -14 101 -37 139 -51 132 -47 182 -83 231 -168 46 -77 97 -263 96 -345
-1 -97 -30 -326 -57 -465 -8 -38 -23 -221 -34 -405 -11 -184 -24 -376 -30
-427 -5 -50 -10 -205 -10 -345 0 -328 -17 -472 -80 -668 -48 -151 -198 -411
-328 -570 -64 -77 -224 -235 -307 -302 -38 -31 -110 -89 -160 -130 -129 -105
-179 -140 -273 -187 -74 -37 -207 -84 -312 -111 -194 -48 -461 -40 -680 20
-158 44 -306 138 -540 344 -174 153 -284 270 -470 501 -22 28 -55 68 -73 91
-141 175 -203 289 -282 514 -31 91 -66 187 -77 214 -25 62 -66 191 -74 233 -3
18 -10 36 -15 39 -5 3 -9 18 -9 33 0 15 -4 31 -9 36 -9 10 -13 31 -32 190 -11
91 -28 128 -55 118 -22 -8 -43 15 -55 61 -21 75 -71 190 -106 244 -80 121
-202 180 -179 87 7 -26 50 -75 67 -75 5 0 30 -19 56 -42 49 -45 90 -123 112
-213 7 -27 21 -70 31 -95 30 -75 75 -493 58 -539 -4 -12 -24 -25 -47 -32 -38
-11 -43 -10 -81 15 -39 26 -53 27 -27 2 31 -30 78 -43 124 -35 59 11 82 -3
107 -67 11 -27 33 -78 49 -114 16 -36 37 -85 47 -110 40 -102 139 -305 203
-420 38 -69 138 -207 212 -294 114 -135 351 -360 486 -463 35 -26 71 -54 79
-62 30 -29 197 -133 275 -171 218 -106 464 -157 705 -147 218 9 339 38 510
120 61 29 220 135 300 199 528 422 714 660 813 1043 31 119 35 141 47 230 6
50 18 106 26 125 9 23 15 90 18 190 6 185 31 385 58 457 21 56 96 133 109 112
3 -6 9 -7 12 -3 15 25 37 123 37 163 l-1 46 -35 -40 c-20 -22 -57 -76 -83
-119 -32 -56 -47 -74 -50 -61 -7 39 22 199 46 252 27 58 33 78 93 303 21 80
59 219 83 310 44 162 55 209 97 400 98 450 94 647 -19 1100 -67 268 -185 640
-202 640 -15 0 -51 -96 -65 -173 -3 -20 -10 -39 -14 -42 -9 -6 -15 9 -65 190
-20 72 -40 141 -45 155 -4 14 -21 66 -36 115 -73 244 -111 330 -139 318 -9 -3
-30 -30 -47 -60 -38 -68 -48 -58 -48 53 0 84 -17 332 -26 372 -9 42 -44 26
-138 -65 -179 -173 -257 -227 -242 -170 3 13 11 98 17 189 13 192 7 219 -41
201z"/>
<path d="M2930 3965 c-76 -21 -164 -67 -168 -88 -6 -29 34 -35 107 -15 135 37
273 22 646 -72 346 -87 370 -92 400 -78 36 16 44 56 15 80 -12 10 -30 18 -39
18 -10 0 -21 3 -25 7 -18 19 -284 93 -333 93 -17 0 -34 4 -37 8 -3 5 -38 14
-78 22 -40 7 -91 16 -113 21 -22 5 -103 11 -180 14 -107 4 -153 2 -195 -10z"/>
<path d="M5375 3805 c-5 -2 -57 -9 -115 -14 -101 -10 -249 -36 -338 -60 -48
-14 -66 -41 -49 -79 15 -33 45 -36 170 -18 304 44 416 56 517 56 112 0 138 -6
208 -51 24 -15 55 -4 60 22 5 25 -57 87 -116 116 -53 26 -67 28 -192 30 -74 1
-139 0 -145 -2z"/>
<path d="M3175 3543 c-75 -6 -187 -35 -250 -63 -81 -36 -181 -133 -190 -184
-12 -60 4 -59 62 5 56 60 142 119 175 119 15 0 14 -5 -3 -50 -13 -33 -19 -76
-19 -126 0 -64 5 -86 30 -138 55 -112 89 -139 217 -171 132 -33 166 -32 240 5
77 39 129 90 162 159 22 48 26 70 26 148 0 51 3 93 8 93 29 0 172 -190 198
-263 20 -56 34 -40 34 40 0 39 -3 69 -7 66 -5 -2 -8 5 -8 16 0 12 -4 21 -9 21
-5 0 -11 10 -15 23 -3 12 -16 34 -28 49 -13 15 -34 41 -48 59 -29 37 -108 97
-169 129 -59 30 -120 47 -214 59 -76 11 -109 11 -192 4z m49 -105 c23 -32 20
-65 -9 -93 -31 -32 -66 -32 -105 1 -26 22 -30 32 -25 53 11 44 34 61 81 61 33
0 46 -5 58 -22z m336 -234 c10 -48 9 -63 -6 -103 -25 -68 -50 -98 -107 -131
-42 -24 -64 -30 -114 -30 -71 0 -103 10 -147 47 -35 29 -78 84 -71 91 2 2 17
-5 34 -17 43 -31 120 -52 161 -45 55 10 123 49 162 93 28 30 40 54 49 100 6
33 15 58 20 56 4 -3 13 -31 19 -61z"/>
<path d="M5135 3409 c-44 -4 -107 -14 -140 -23 -86 -22 -120 -21 -138 7 l-15
22 -48 -26 c-94 -50 -176 -181 -190 -305 -8 -66 6 -99 49 -113 25 -9 32 -8 43
7 7 9 14 22 14 29 0 12 67 96 80 101 5 2 13 -20 19 -48 14 -67 42 -119 89
-168 63 -65 106 -81 219 -84 88 -1 103 1 149 25 149 76 226 247 180 398 -10
30 -20 60 -23 68 -6 15 16 10 87 -21 83 -37 180 -135 191 -193 3 -12 12 -20
24 -20 29 0 32 62 7 112 -65 126 -207 209 -402 234 -73 9 -83 9 -195 -2z m-57
-126 c4 -27 -23 -70 -50 -79 -28 -9 -78 15 -78 37 0 12 17 27 48 43 55 30 76
29 80 -1z m307 -178 c13 -53 14 -64 0 -105 -31 -92 -108 -155 -204 -167 -50
-6 -115 10 -139 33 -7 8 -21 19 -30 26 -20 15 -62 72 -62 85 0 4 4 3 8 -2 4
-6 22 -22 41 -34 27 -19 47 -24 105 -25 80 -1 118 13 178 66 38 33 78 121 78
169 0 34 8 19 25 -46z"/>
<path d="M4620 2294 c0 -57 -6 -105 -15 -127 -35 -84 -134 -136 -263 -137
-132 0 -234 46 -289 131 -61 95 -79 100 -76 20 2 -55 24 -115 56 -149 27 -30
113 -69 192 -87 187 -45 339 11 404 148 48 101 51 213 7 272 -14 18 -15 12
-16 -71z"/>
<path d="M3400 1861 c0 -57 107 -181 229 -265 31 -21 99 -59 151 -83 52 -24
102 -48 112 -53 9 -5 60 -21 115 -35 135 -36 318 -39 441 -7 157 42 368 163
449 257 44 51 79 112 70 121 -3 3 -61 -8 -129 -25 -192 -48 -262 -56 -518 -55
-248 0 -287 5 -524 60 -108 25 -282 81 -323 103 -12 6 -33 11 -47 11 -22 0
-26 -5 -26 -29z m485 -257 c135 -29 281 -44 428 -44 191 0 279 -19 245 -54
-45 -45 -268 -82 -423 -70 -165 12 -365 83 -453 160 l-32 28 27 11 c21 9 41 8
83 -3 30 -7 87 -20 125 -28z"/>
<path d="M4590 1384 c-142 -73 -228 -94 -399 -95 -122 -2 -129 -3 -66 -10 128
-14 326 -12 370 4 52 19 153 89 183 127 13 17 22 30 20 29 -2 0 -50 -25 -108
-55z"/>
</g>
</svg>
